<svg width="20" height="20" viewBox="0 0 20 20" fill="none" xmlns="http://www.w3.org/2000/svg">
<path d="M17.8337 14.2781C17.8337 14.5464 17.719 14.8115 17.5037 15.0125C17.2871 15.2144 16.9867 15.3337 16.6667 15.3337H3.33374C3.01362 15.3337 2.71242 15.2146 2.49585 15.0125C2.28052 14.8115 2.16681 14.5464 2.16675 14.2781V7.13745L8.68726 12.3474L8.69897 12.3572L8.71167 12.366C9.08266 12.6262 9.5308 12.7643 9.98706 12.7634H9.98901C10.4711 12.7608 10.9425 12.6116 11.3318 12.3337L11.3435 12.3259L11.3542 12.3171L17.8337 7.13745V14.2781ZM16.6648 4.66675L16.7556 4.67065L9.99976 10.0701L3.24292 4.67065L3.33569 4.66675H16.6648Z" fill="#9CA3AF" stroke="#9CA3AF"/>
</svg>
