<svg width="46" height="48" viewBox="0 0 46 48" fill="none" xmlns="http://www.w3.org/2000/svg">
<path d="M28.9893 12.8836C30.4131 12.8836 31.7785 12.3181 32.7852 11.3113C33.792 10.3046 34.3576 8.93917 34.3576 7.51543C34.3576 6.09169 33.792 4.72627 32.7852 3.71953C31.7785 2.71279 30.4131 2.14722 28.9893 2.14722C27.5656 2.14722 26.2002 2.71279 25.1934 3.71953C24.1867 4.72627 23.6211 6.09169 23.6211 7.51543C23.6211 8.93917 24.1867 10.3046 25.1934 11.3113C26.2002 12.3181 27.5656 12.8836 28.9893 12.8836Z" stroke="white" stroke-width="4.29458" stroke-miterlimit="2"/>
<path d="M18.2522 47.2402C19.1064 47.2402 19.9257 46.9008 20.5297 46.2968C21.1338 45.6928 21.4731 44.8735 21.4731 44.0193C21.4731 43.165 21.1338 42.3458 20.5297 41.7417C19.9257 41.1377 19.1064 40.7983 18.2522 40.7983C17.3979 40.7983 16.5787 41.1377 15.9746 41.7417C15.3706 42.3458 15.0313 43.165 15.0312 44.0193C15.0312 44.8735 15.3706 45.6928 15.9746 46.2968C16.5787 46.9008 17.3979 47.2402 18.2522 47.2402Z" fill="white"/>
<path d="M24.0289 18.1553L19.3263 26.841M19.3263 26.841L27.1746 33.3044C27.5075 33.562 27.7437 33.9163 27.8832 34.3136L31.1364 45.093M19.3263 26.841L13.432 35.0437C12.8522 35.8919 11.7571 36.2139 10.8123 35.8167L2.14795 32.2093" stroke="white" stroke-width="4.29458" stroke-miterlimit="2" stroke-linecap="round" stroke-linejoin="round"/>
<path d="M42.9463 23.6201H35.4307C35.0442 23.6201 34.6577 23.5234 34.3142 23.3302L30.8678 21.3869C26.5624 18.8638 21.8491 17.1353 16.9426 16.2549L13.4854 15.6429C13.0023 15.557 12.4977 15.6429 12.0682 15.8791L5.36865 19.3255" stroke="white" stroke-width="4.29458" stroke-miterlimit="2" stroke-linecap="round" stroke-linejoin="round"/>
</svg>
