<svg width="148" height="47" viewBox="0 0 148 47" fill="none" xmlns="http://www.w3.org/2000/svg">
<mask id="mask0_1_9819" style="mask-type:luminance" maskUnits="userSpaceOnUse" x="0" y="0" width="148" height="47">
<path d="M147.958 0H0V46.5409H147.958V0Z" fill="white"/>
</mask>
<g mask="url(#mask0_1_9819)">
<path d="M34.2852 45.9716V37.0776H35.3199V45.047H39.2681V45.9716H34.2852Z" fill="white"/>
<path d="M43.6011 36.7673C43.767 36.7673 43.9098 36.8216 44.0292 36.9287C44.1487 37.0357 44.2092 37.2033 44.2092 37.4298C44.2092 37.6532 44.1487 37.8192 44.0292 37.9293C43.9098 38.0395 43.767 38.0937 43.6011 38.0937C43.4273 38.0937 43.2815 38.0395 43.1667 37.9293C43.0519 37.8192 42.9929 37.6532 42.9929 37.4298C42.9929 37.2033 43.0503 37.0357 43.1667 36.9287C43.283 36.8232 43.4273 36.7673 43.6011 36.7673ZM44.0944 39.2635V45.9312H43.0844V39.2635H44.0944Z" fill="white"/>
<path d="M50.4612 45.9187L47.9309 39.251H49.0138L50.4798 43.2845C50.5806 43.5607 50.6846 43.8647 50.7901 44.1967C50.8956 44.5287 50.9685 44.7971 51.0088 45.0003H51.0507C51.0988 44.7971 51.181 44.5287 51.2943 44.1936C51.4075 43.8585 51.5115 43.556 51.6045 43.2845L53.0706 39.251H54.1534L51.6169 45.9187H50.4612Z" fill="white"/>
<path d="M60.818 39.0942C61.3858 39.0942 61.8729 39.2199 62.2778 39.4712C62.6827 39.7225 62.993 40.0747 63.2087 40.5261C63.4227 40.9791 63.5313 41.5066 63.5313 42.1101V42.7368H58.9253C58.9378 43.5203 59.1317 44.116 59.5087 44.5256C59.8856 44.9351 60.4178 45.1399 61.1019 45.1399C61.5239 45.1399 61.8962 45.1011 62.222 45.0235C62.5462 44.946 62.8829 44.8327 63.2319 44.6822V45.5696C62.8953 45.7201 62.5617 45.8287 62.2313 45.8985C61.9009 45.9668 61.5099 46.0025 61.06 46.0025C60.4193 46.0025 59.8608 45.8721 59.3846 45.61C58.9083 45.3478 58.5375 44.9646 58.2738 44.4573C58.01 43.95 57.8782 43.3295 57.8782 42.5957C57.8782 41.8774 57.9992 41.2568 58.2396 40.7309C58.4801 40.2066 58.8214 39.8017 59.262 39.5178C59.7026 39.237 60.2192 39.0942 60.818 39.0942ZM60.8056 39.9227C60.2657 39.9227 59.836 40.0995 59.5164 40.4517C59.1953 40.8038 59.006 41.2972 58.944 41.9301H62.4718C62.4671 41.533 62.4066 41.1824 62.2856 40.8814C62.1661 40.5789 61.9846 40.3446 61.7411 40.1755C61.4991 40.008 61.1857 39.9227 60.8056 39.9227Z" fill="white"/>
<path d="M77.2983 46.1266H76.2573V38.1449H73.4602V37.2327H80.0845V38.1449H77.2983V46.1266Z" fill="white"/>
<path d="M84.8145 36.6121V39.4402C84.8145 39.6031 84.8099 39.766 84.8021 39.9304C84.7944 40.0949 84.7804 40.2454 84.7602 40.3834H84.8269C84.965 40.1476 85.1403 39.9506 85.3529 39.7908C85.5654 39.631 85.8074 39.5085 86.0804 39.4262C86.3519 39.3425 86.6405 39.3021 86.9446 39.3021C87.4798 39.3021 87.9266 39.3874 88.2865 39.5581C88.6449 39.7287 88.9148 39.9925 89.0947 40.3493C89.2747 40.7061 89.3662 41.1684 89.3662 41.7362V46.08H88.3687V41.8014C88.3687 41.246 88.2415 40.8302 87.9886 40.5541C87.7357 40.2779 87.3464 40.1399 86.8235 40.1399C86.3287 40.1399 85.9346 40.2345 85.6399 40.4222C85.3451 40.6099 85.1357 40.8876 85.0069 41.2522C84.8797 41.6168 84.8161 42.0636 84.8161 42.591V46.0769H83.8062V36.6121H84.8145Z" fill="white"/>
<path d="M96.0279 39.2495C96.5957 39.2495 97.0828 39.3752 97.4877 39.6265C97.8926 39.8778 98.2029 40.23 98.4185 40.6814C98.6326 41.1344 98.7412 41.6619 98.7412 42.2654V42.8921H94.1368C94.1492 43.6756 94.3431 44.2713 94.7201 44.6808C95.0971 45.0904 95.6292 45.2952 96.3133 45.2952C96.7353 45.2952 97.1076 45.2564 97.4334 45.1788C97.7576 45.1013 98.0943 44.988 98.4434 44.8375V45.7249C98.1067 45.8754 97.7732 45.984 97.4427 46.0538C97.1123 46.122 96.7213 46.1577 96.2714 46.1577C95.6307 46.1577 95.0722 46.0274 94.596 45.7652C94.1197 45.5031 93.7489 45.1199 93.4852 44.6126C93.2215 44.1053 93.0896 43.4847 93.0896 42.7509C93.0896 42.0327 93.2106 41.4121 93.4511 40.8862C93.6915 40.3618 94.0328 39.9569 94.4734 39.673C94.914 39.3922 95.4337 39.2495 96.0279 39.2495ZM96.0186 40.0779C95.4787 40.0779 95.049 40.2548 94.7294 40.607C94.4083 40.9591 94.219 41.4524 94.1569 42.0854H97.6847C97.6801 41.6883 97.6196 41.3376 97.4986 41.0367C97.3791 40.7342 97.1976 40.4999 96.954 40.3308C96.7105 40.1617 96.3971 40.0779 96.0186 40.0779Z" fill="white"/>
<path d="M112.928 41.1328H116.037V45.4456C115.57 45.6038 115.091 45.7217 114.599 45.7977C114.106 45.8753 113.555 45.9141 112.947 45.9141C112.022 45.9141 111.242 45.7295 110.608 45.3602C109.973 44.991 109.491 44.4651 109.163 43.781C108.834 43.0984 108.67 42.2854 108.67 41.3438C108.67 40.4238 108.851 39.6202 109.214 38.9345C109.577 38.2488 110.103 37.7167 110.791 37.3381C111.478 36.9596 112.305 36.7688 113.27 36.7688C113.765 36.7688 114.233 36.8138 114.678 36.9053C115.122 36.9968 115.535 37.1256 115.916 37.2916L115.521 38.1914C115.192 38.0502 114.83 37.9277 114.435 37.8268C114.039 37.726 113.631 37.6748 113.209 37.6748C112.483 37.6748 111.861 37.8253 111.344 38.1247C110.828 38.4241 110.432 38.8492 110.158 39.3968C109.883 39.9444 109.747 40.5929 109.747 41.3438C109.747 42.0853 109.866 42.7322 110.105 43.2814C110.344 43.8306 110.718 44.2572 111.223 44.5613C111.731 44.8654 112.384 45.0174 113.183 45.0174C113.585 45.0174 113.929 44.9941 114.218 44.9476C114.506 44.901 114.767 44.8452 115.003 44.78V42.0574H112.928V41.1328Z" fill="white"/>
<path d="M122.745 38.9392C123.54 38.9392 124.131 39.1176 124.515 39.4744C124.9 39.8312 125.094 40.4006 125.094 41.184V45.7156H124.357L124.163 44.7304H124.115C123.929 44.974 123.733 45.1772 123.532 45.3417C123.329 45.5061 123.094 45.6302 122.829 45.7125C122.564 45.7947 122.238 45.8366 121.853 45.8366C121.447 45.8366 121.087 45.7652 120.773 45.624C120.459 45.4813 120.212 45.2672 120.032 44.9787C119.852 44.6901 119.762 44.3255 119.762 43.8834C119.762 43.2179 120.026 42.7075 120.553 42.3507C121.081 41.9938 121.883 41.7984 122.962 41.7673L124.112 41.7193V41.3112C124.112 40.7357 123.988 40.3323 123.741 40.1012C123.495 39.87 123.145 39.7537 122.696 39.7537C122.347 39.7537 122.015 39.8049 121.698 39.9057C121.382 40.0065 121.082 40.126 120.798 40.2641L120.488 39.4977C120.787 39.3441 121.133 39.2122 121.523 39.1021C121.904 38.9966 122.314 38.9392 122.745 38.9392ZM124.095 42.4329L123.079 42.4748C122.247 42.5073 121.661 42.6423 121.321 42.8828C120.98 43.1217 120.811 43.4614 120.811 43.8989C120.811 44.2806 120.927 44.5613 121.158 44.7444C121.389 44.9275 121.695 45.0174 122.077 45.0174C122.669 45.0174 123.153 44.853 123.53 44.5241C123.907 44.1952 124.096 43.7034 124.096 43.0457L124.095 42.4329Z" fill="white"/>
<path d="M136.059 38.9392C136.793 38.9392 137.347 39.1316 137.721 39.5148C138.093 39.898 138.281 40.5138 138.281 41.3609V45.7295H137.283V41.409C137.283 40.8691 137.167 40.4658 136.934 40.1958C136.701 39.9259 136.355 39.7909 135.896 39.7909C135.251 39.7909 134.782 39.9771 134.491 40.351C134.199 40.7248 134.053 41.274 134.053 42V45.7295H133.046V41.409C133.046 41.0475 132.995 40.7481 132.891 40.5092C132.787 40.2703 132.634 40.0903 132.429 39.9709C132.224 39.8514 131.965 39.7909 131.653 39.7909C131.211 39.7909 130.856 39.8824 130.589 40.0639C130.321 40.247 130.128 40.5169 130.007 40.8769C129.888 41.2352 129.827 41.6774 129.827 42.2002V45.728H128.817V39.0618H129.632L129.784 40.005H129.838C129.972 39.7738 130.141 39.5784 130.342 39.4217C130.546 39.2634 130.772 39.144 131.023 39.0633C131.275 38.9826 131.543 38.9423 131.827 38.9423C132.334 38.9423 132.759 39.0369 133.102 39.2247C133.445 39.4139 133.693 39.7009 133.847 40.0857H133.901C134.12 39.7009 134.421 39.4139 134.801 39.2247C135.186 39.0354 135.605 38.9392 136.059 38.9392Z" fill="white"/>
<path d="M144.942 38.9392C145.51 38.9392 145.997 39.0649 146.402 39.3162C146.807 39.5675 147.117 39.9197 147.333 40.3711C147.547 40.8241 147.656 41.3516 147.656 41.9551V42.5818H143.051C143.063 43.3652 143.257 43.961 143.634 44.3705C144.011 44.7801 144.543 44.9849 145.228 44.9849C145.65 44.9849 146.022 44.9461 146.348 44.8685C146.672 44.7909 147.009 44.6777 147.358 44.5272V45.4146C147.021 45.5651 146.687 45.6737 146.357 45.7435C146.027 45.8117 145.636 45.8474 145.186 45.8474C144.545 45.8474 143.987 45.7171 143.51 45.4549C143.034 45.1928 142.663 44.8096 142.4 44.3023C142.136 43.795 142.004 43.1744 142.004 42.4406C142.004 41.7224 142.125 41.1018 142.365 40.5759C142.606 40.0515 142.947 39.6466 143.388 39.3627C143.827 39.0819 144.346 38.9392 144.942 38.9392ZM144.93 39.7676C144.39 39.7676 143.96 39.9445 143.641 40.2967C143.319 40.6488 143.13 41.1421 143.068 41.7751H146.596C146.591 41.378 146.531 41.0273 146.41 40.7264C146.29 40.4239 146.109 40.1896 145.865 40.0205C145.622 39.853 145.31 39.7676 144.93 39.7676Z" fill="white"/>
<path d="M48.0611 17.1627C48.0611 18.5093 47.7322 19.6681 47.0744 20.6408C46.4166 21.6135 45.4749 22.3597 44.2478 22.8763C43.0207 23.3945 41.5593 23.652 39.8606 23.652C39.0321 23.652 38.2409 23.6055 37.4839 23.5124C36.7284 23.4193 36.0163 23.2828 35.3492 23.1013C34.6821 22.9198 34.0678 22.701 33.5093 22.442V18.9328C34.4416 19.3361 35.4764 19.7022 36.6151 20.028C37.7538 20.3538 38.9127 20.5167 40.0933 20.5167C41.0567 20.5167 41.8525 20.3895 42.4855 20.1366C43.1169 19.8838 43.59 19.5207 43.9065 19.0491C44.223 18.5775 44.3797 18.0268 44.3797 17.3954C44.3797 16.7221 44.1982 16.1558 43.8367 15.6951C43.4737 15.2343 42.9276 14.8077 42.1985 14.4137C41.4693 14.0196 40.5494 13.6007 39.4417 13.1555C38.697 12.8654 37.9865 12.5287 37.3148 12.1456C36.6415 11.7624 36.0411 11.3125 35.5136 10.7943C34.9862 10.2762 34.5658 9.66028 34.2555 8.94665C33.9452 8.23302 33.7901 7.39994 33.7901 6.44585C33.7901 5.16288 34.1003 4.06141 34.7224 3.14611C35.343 2.22925 36.2149 1.52804 37.3396 1.04246C38.4628 0.555332 39.7752 0.311768 41.2754 0.311768C42.4653 0.311768 43.5869 0.438979 44.6372 0.691851C45.6875 0.946275 46.7207 1.29533 47.7353 1.74057L46.5547 4.75332C45.613 4.37013 44.707 4.06141 43.8367 3.82871C42.9664 3.596 42.0775 3.47965 41.1653 3.47965C40.3787 3.47965 39.7101 3.5991 39.1624 3.83646C38.6133 4.07537 38.1975 4.41047 37.912 4.8464C37.6266 5.28078 37.4854 5.78808 37.4854 6.36829C37.4854 7.04158 37.6483 7.60007 37.9741 8.04531C38.2999 8.49055 38.8072 8.89856 39.496 9.27244C40.1848 9.64476 41.0722 10.059 42.1597 10.5151C43.4116 11.0332 44.4759 11.5762 45.3508 12.1456C46.2258 12.7149 46.896 13.396 47.3614 14.1872C47.8284 14.9799 48.0611 15.9712 48.0611 17.1627Z" fill="white"/>
<path d="M58.9301 20.6983C59.4064 20.6983 59.878 20.6549 60.3434 20.5664C60.8088 20.478 61.2339 20.3725 61.6171 20.2484V23.0129C61.2137 23.1882 60.6909 23.3387 60.0487 23.4628C59.4064 23.5869 58.7393 23.649 58.0458 23.649C57.0731 23.649 56.1982 23.4861 55.4209 23.1603C54.6453 22.8345 54.0278 22.2729 53.5733 21.4755C53.1172 20.6781 52.8907 19.5751 52.8907 18.168V8.94207H50.5435V7.31314L53.0598 6.00845L54.2559 2.32861H56.5534V6.14807H61.4759V8.94362H56.5534V18.1215C56.5534 18.9918 56.7706 19.6387 57.205 20.0622C57.6394 20.4873 58.2134 20.6983 58.9301 20.6983Z" fill="white"/>
<path d="M71.9568 5.89526C73.4895 5.89526 74.8035 6.21174 75.9003 6.84315C76.9972 7.47455 77.8411 8.36969 78.4322 9.53011C79.0217 10.689 79.318 12.0774 79.318 13.6924V15.6502H67.8426C67.8844 17.3179 68.3312 18.6009 69.186 19.5007C70.0408 20.4021 71.2385 20.852 72.7806 20.852C73.8774 20.852 74.864 20.7465 75.739 20.5339C76.614 20.3214 77.5169 20.008 78.4492 19.5938V22.56C77.5898 22.9634 76.7148 23.2581 75.8243 23.4458C74.9338 23.632 73.8681 23.7251 72.6254 23.7251C70.9375 23.7251 69.4529 23.3993 68.1683 22.7462C66.8838 22.0946 65.8863 21.1157 65.1711 19.811C64.4559 18.5063 64.0991 16.882 64.0991 14.9351C64.0991 13.0098 64.4249 11.3731 65.078 10.0281C65.7296 8.68306 66.6465 7.65761 67.827 6.95329C69.0045 6.24897 70.3821 5.89526 71.9568 5.89526ZM71.9568 8.64583C70.8072 8.64583 69.8779 9.01816 69.169 9.76436C68.46 10.509 68.0427 11.6027 67.9186 13.0408H75.7297C75.7188 12.1814 75.5761 11.4228 75.3031 10.7665C75.0285 10.1088 74.6174 9.59216 74.0682 9.21363C73.519 8.83354 72.8147 8.64583 71.9568 8.64583Z" fill="white"/>
<path d="M90.6337 5.89526C92.6738 5.89526 94.312 6.63992 95.5485 8.13078C96.7849 9.62164 97.4039 11.837 97.4039 14.7768C97.4039 16.7238 97.1169 18.362 96.5413 19.6915C95.9673 21.0226 95.1637 22.0263 94.1352 22.7043C93.1051 23.3822 91.9074 23.722 90.5407 23.722C89.6704 23.722 88.9148 23.6103 88.2741 23.3884C87.6319 23.1666 87.0842 22.8687 86.6281 22.4948C86.172 22.1225 85.7888 21.7238 85.4786 21.2987H85.2614C85.3126 21.7021 85.3622 22.1551 85.4088 22.6577C85.4553 23.1604 85.4786 23.6227 85.4786 24.0478V31.0351H81.8003V6.22415H84.7975L85.3095 8.60084H85.4801C85.8013 8.11371 86.1922 7.66382 86.653 7.2496C87.1137 6.83539 87.6722 6.5065 88.33 6.26294C88.9846 6.01937 89.7541 5.89526 90.6337 5.89526ZM89.6564 8.8925C88.6527 8.8925 87.8475 9.09262 87.2409 9.48977C86.6359 9.88847 86.1953 10.4842 85.9207 11.2754C85.6461 12.0681 85.4987 13.0641 85.4786 14.2649V14.7768C85.4786 16.0505 85.6104 17.1302 85.8742 18.0145C86.1379 18.9003 86.5785 19.5721 87.1944 20.0328C87.8103 20.4936 88.6464 20.7247 89.7029 20.7247C90.5825 20.7247 91.3148 20.4812 91.8997 19.994C92.4845 19.5069 92.922 18.8135 93.2121 17.9137C93.5022 17.0123 93.6465 15.9512 93.6465 14.7303C93.6465 12.8779 93.3207 11.4414 92.6676 10.4206C92.0176 9.40445 91.0123 8.8925 89.6564 8.8925Z" fill="white"/>
<path d="M120.214 11.989C120.214 13.7172 120.001 15.2965 119.578 16.7253C119.154 18.1541 118.516 19.3859 117.668 20.4206C116.819 21.4554 115.761 22.259 114.492 22.8268C113.223 23.3961 111.746 23.6816 110.058 23.6816C108.36 23.6816 106.875 23.3961 105.601 22.8268C104.328 22.2574 103.27 21.4523 102.426 20.4129C101.582 19.3719 100.947 18.1355 100.524 16.702C100.099 15.2685 99.8877 13.6877 99.8877 11.9579C99.8877 9.66037 100.279 7.63584 101.061 5.8859C101.842 4.13596 102.997 2.77076 104.523 1.78565C106.05 0.802085 107.936 0.310303 110.184 0.310303C112.337 0.310303 114.162 0.778814 115.657 1.71584C117.153 2.65286 118.287 3.99324 119.058 5.73697C119.827 7.48536 120.214 9.56728 120.214 11.989ZM101.563 11.975C101.563 14.0042 101.869 15.7929 102.48 17.3396C103.091 18.8879 104.027 20.0964 105.291 20.9651C106.554 21.8355 108.149 22.2698 110.074 22.2698C112.019 22.2698 113.62 21.8401 114.872 20.9807C116.124 20.1212 117.052 18.9205 117.652 17.3784C118.253 15.8363 118.552 14.0399 118.552 11.9905C118.552 8.74972 117.846 6.23496 116.433 4.44313C115.02 2.65286 112.936 1.75617 110.183 1.75617C108.246 1.75617 106.639 2.1859 105.361 3.04536C104.083 3.90481 103.13 5.10091 102.502 6.63211C101.875 8.1664 101.563 9.94427 101.563 11.975Z" fill="white"/>
<path d="M136.033 6.51562V23.396H134.759L134.526 20.3522H134.433C134.143 20.9728 133.735 21.5375 133.206 22.0448C132.679 22.5521 132.03 22.9554 131.265 23.2564C130.499 23.5558 129.609 23.7063 128.594 23.7063C127.3 23.7063 126.216 23.4813 125.341 23.0314C124.466 22.5815 123.806 21.9005 123.361 20.9898C122.916 20.0792 122.694 18.9405 122.694 17.5737V6.51562H124.263V17.4171C124.263 19.1049 124.643 20.346 125.404 21.1434C126.166 21.9408 127.28 22.3395 128.751 22.3395C129.993 22.3395 131.036 22.1022 131.88 21.6259C132.724 21.1496 133.366 20.4282 133.805 19.4602C134.244 18.4921 134.464 17.2836 134.464 15.8347V6.51562H136.033Z" fill="white"/>
<path d="M145.488 22.4048C145.975 22.4048 146.428 22.3691 146.847 22.2962C147.266 22.2233 147.637 22.1302 147.958 22.0169V23.3216C147.626 23.4364 147.238 23.5357 146.793 23.6241C146.348 23.7126 145.856 23.756 145.318 23.756C144.365 23.756 143.572 23.5776 142.941 23.2208C142.31 22.864 141.833 22.3195 141.512 21.5903C141.191 20.8612 141.031 19.9319 141.031 18.8025V7.87006H138.515V6.93769L141.016 6.45677L141.559 2.48218H142.6V6.56692H147.863V7.87161H142.6V18.711C142.6 19.9226 142.825 20.841 143.274 21.4678C143.727 22.0914 144.464 22.4048 145.488 22.4048Z" fill="white"/>
<path d="M3.10273 17.0107V12.4109C3.10273 11.3234 3.28889 10.2793 3.63329 9.30818C4.0413 8.15241 4.67115 7.10059 5.47166 6.20545C5.70281 5.94792 5.94792 5.70281 6.20545 5.47166C7.10059 4.67115 8.15241 4.0413 9.30818 3.63329C10.2793 3.28889 11.3234 3.10273 12.4109 3.10273C13.4984 3.10273 14.5425 3.28889 15.5136 3.63329C16.6694 4.0413 17.7212 4.67115 18.6164 5.47166C18.8739 5.70281 19.119 5.94792 19.3501 6.20545C20.1507 7.10059 20.7805 8.15241 21.1885 9.30818C21.5329 10.2793 21.7191 11.3234 21.7191 12.4109V23.272L24.7939 24.8078L24.8218 12.4109C24.8218 11.3389 24.6853 10.2995 24.4309 9.30818C24.147 8.20671 23.7157 7.16574 23.1603 6.20545C22.7476 5.48872 22.2636 4.81853 21.7191 4.20264C21.3762 3.81325 21.0086 3.44558 20.6192 3.10273C20.0033 2.5582 19.3331 2.07417 18.6164 1.66151C17.6561 1.10612 16.6151 0.674843 15.5136 0.390943C14.5223 0.13652 13.4829 0 12.4109 0C11.3389 0 10.2995 0.13652 9.30818 0.390943C8.20671 0.674843 7.16574 1.10612 6.20545 1.66151C5.48872 2.07417 4.81853 2.5582 4.20264 3.10273C3.81325 3.44558 3.44558 3.81325 3.10273 4.20264C2.5582 4.81853 2.07417 5.48872 1.66151 6.20545C1.10612 7.16574 0.674843 8.20671 0.390943 9.30818C0.13652 10.2995 0 11.3389 0 12.4109V18.5605L21.7082 29.4759L21.7191 34.13C21.7191 35.2175 21.5329 36.2616 21.1885 37.2327C20.7805 38.3885 20.1507 39.4403 19.3501 40.3354C19.119 40.593 18.8739 40.8381 18.6164 41.0692C17.7212 41.8697 16.6694 42.4996 15.5136 42.9076C14.5425 43.252 13.4984 43.4382 12.4109 43.4382C11.3234 43.4382 10.2793 43.252 9.30818 42.9076C8.15241 42.4996 7.10059 41.8697 6.20545 41.0692C5.94792 40.8381 5.70281 40.593 5.47166 40.3354C4.67115 39.4403 4.0413 38.3885 3.63329 37.2327C3.28889 36.2616 3.10273 35.2175 3.10273 34.13V23.2735L0 21.7191V34.13C0 35.202 0.13652 36.2414 0.390943 37.2327C0.674843 38.3342 1.10612 39.3751 1.66151 40.3354C2.07417 41.0522 2.5582 41.7224 3.10273 42.3382C3.44558 42.7276 3.81325 43.0953 4.20264 43.4382C4.81853 43.9827 5.48872 44.4667 6.20545 44.8794C7.16574 45.4348 8.20671 45.866 9.30818 46.1499C10.2995 46.4044 11.3389 46.5409 12.4109 46.5409C13.4829 46.5409 14.5223 46.4044 15.5136 46.1499C16.6151 45.866 17.6561 45.4348 18.6164 44.8794C19.3331 44.4667 20.0033 43.9827 20.6192 43.4382C21.0086 43.0953 21.3762 42.7276 21.7191 42.3382C22.2636 41.7224 22.7476 41.0522 23.1603 40.3354C23.7157 39.3751 24.147 38.3342 24.4309 37.2327C24.6853 36.2414 24.8218 35.202 24.8218 34.13V27.9245H24.7939L3.10273 17.0107Z" fill="white"/>
<path d="M6.20557 24.8281V34.1316C6.20557 35.261 6.50808 36.3206 7.03555 37.2344C7.58007 38.1761 8.36661 38.9626 9.30829 39.5071C10.222 40.0346 11.2816 40.3371 12.411 40.3371C13.5404 40.3371 14.6 40.0346 15.5137 39.5071C16.4554 38.9626 17.242 38.1761 17.7865 37.2344C18.314 36.3206 18.6165 35.261 18.6165 34.1316V31.0289H18.5885L15.5137 29.49V34.1316C15.5137 35.8459 14.1237 37.2344 12.411 37.2344C10.6968 37.2344 9.30829 35.8459 9.30829 34.1316V26.3826L6.20557 24.8281Z" fill="white"/>
<path d="M18.6086 21.7192H18.6179V12.411C18.6179 11.2816 18.3154 10.222 17.788 9.30829C17.2434 8.36661 16.4569 7.58007 15.5152 7.03555C14.6015 6.50808 13.5419 6.20557 12.4125 6.20557C11.2831 6.20557 10.2235 6.50808 9.30976 7.03555C8.36808 7.58007 7.58154 8.36661 7.03701 9.30829C6.50955 10.222 6.20703 11.2816 6.20703 12.411V15.5277L9.30976 17.076V12.411C9.30976 10.6968 10.6982 9.30829 12.4125 9.30829C14.1252 9.30829 15.5152 10.6968 15.5152 12.411V20.174L18.6086 21.7192Z" fill="white"/>
</g>
</svg>
