<svg width="43" height="43" viewBox="0 0 43 43" fill="none" xmlns="http://www.w3.org/2000/svg">
<path d="M21.1091 0C32.7676 0 42.2182 9.6178 42.2182 21.4827C42.2182 33.3476 32.7676 42.9654 21.1091 42.9654C9.45053 42.9654 0 33.3476 0 21.4827C0 9.6178 9.45053 0 21.1091 0ZM21.1091 4.29654C16.6303 4.29654 12.335 6.10722 9.16798 9.33025C6.001 12.5533 4.22182 16.9246 4.22182 21.4827C4.22182 26.0407 6.001 30.4121 9.16798 33.6351C12.335 36.8582 16.6303 38.6688 21.1091 38.6688C25.5879 38.6688 29.8832 36.8582 33.0502 33.6351C36.2172 30.4121 37.9963 26.0407 37.9963 21.4827C37.9963 16.9246 36.2172 12.5533 33.0502 9.33025C29.8832 6.10722 25.5879 4.29654 21.1091 4.29654ZM21.1091 8.59308C21.6261 8.59315 22.1251 8.78633 22.5115 9.13598C22.8979 9.48563 23.1447 9.96743 23.2052 10.49L23.22 10.7413V20.5933L28.9342 26.4087C29.3128 26.7953 29.5326 27.314 29.549 27.8596C29.5653 28.4051 29.3771 28.9366 29.0223 29.346C28.6676 29.7553 28.1731 30.012 27.6392 30.0637C27.1053 30.1155 26.5721 29.9585 26.1478 29.6246L25.9494 29.4463L19.6167 23.0015C19.2886 22.6673 19.0779 22.2324 19.0172 21.7641L18.9982 21.4827V10.7413C18.9982 10.1716 19.2206 9.62517 19.6164 9.22229C20.0123 8.81941 20.5492 8.59308 21.1091 8.59308Z" fill="white"/>
</svg>
